<svg xmlns="http://www.w3.org/2000/svg" viewBox="0 0 1203.26 179.99"><defs><style>.cls-1{fill:#64f4ac;}.cls-2{fill:#fff;}</style></defs><g id="Capa_2" data-name="Capa 2"><g id="_-_right" data-name="- right"><g id="fedevcode_dark_text"><path class="cls-1" d="M42.06,138.69,3.88,100.51a13.26,13.26,0,0,1,0-18.74L42.06,43.59,60.8,62.33,32,91.14,60.8,120Z"/><path class="cls-2" d="M160.86,27.16h-57.6V61.31h56V88.46h-56V144H74.87V0h86Z"/><path class="cls-2" d="M196.06,103.48q5.35,19.33,29,19.34,15.23,0,23-10.29l21.39,12.35q-15.22,22-44.84,22-25.51,0-40.94-15.43T168.29,92.58q0-23.25,15.22-38.78T222.6,38.27q22.62,0,37.34,15.63t14.71,38.68a62.64,62.64,0,0,1-1,10.9Zm-.41-20.57h52.46q-2.27-10.5-9.36-15.64a26.89,26.89,0,0,0-16.15-5.14q-10.69,0-17.69,5.45T195.65,82.91Z"/><path class="cls-2" d="M366.35,0h26.54V144H366.35V131.87q-11.72,15-33.32,15-20.79,0-35.49-15.74T282.83,92.58q0-22.85,14.71-38.58T333,38.27q21.6,0,33.32,15ZM317.5,113.46q8.12,8.13,20.47,8.12t20.36-8.12q8-8.13,8-20.88t-8-20.88q-8-8.13-20.36-8.13T317.5,71.7q-8.13,8.13-8.13,20.88T317.5,113.46Z"/><path class="cls-2" d="M434.73,103.48q5.36,19.33,29,19.34,15.22,0,23-10.29l21.4,12.35q-15.23,22-44.85,22-25.51,0-40.94-15.43T407,92.58q0-23.25,15.23-38.78t39.08-15.53q22.64,0,37.34,15.63t14.71,38.68a61.68,61.68,0,0,1-1,10.9Zm-.41-20.57h52.46q-2.26-10.5-9.36-15.64a26.87,26.87,0,0,0-16.15-5.14q-10.69,0-17.69,5.45T434.32,82.91Z"/><path class="cls-2" d="M590.13,41.15h29.22L580.26,144H550L510.93,41.15h29.21l24.94,72Z"/><path class="cls-2" d="M671.58,146.89q-23.25,0-38.78-15.64T617.27,92.58q0-23,15.53-38.68t38.78-15.63a53.31,53.31,0,0,1,27.36,7.2A47.85,47.85,0,0,1,717.66,64.8L694.82,78.18a23.27,23.27,0,0,0-9.36-10.08,27.18,27.18,0,0,0-14.09-3.71q-11.93,0-19.75,7.92T643.8,92.58q0,12.14,7.82,20t19.75,7.92a28.13,28.13,0,0,0,14.3-3.6A22.64,22.64,0,0,0,695,107l23,13.16a51.42,51.42,0,0,1-19.13,19.44A52.73,52.73,0,0,1,671.58,146.89Z"/><path class="cls-2" d="M814.12,131.15q-15.84,15.73-38.68,15.74t-38.57-15.74q-15.74-15.74-15.74-38.57T736.87,54q15.74-15.73,38.57-15.73T814.12,54Q830,69.75,830,92.58T814.12,131.15Zm-58.53-18.21a26.75,26.75,0,0,0,19.85,8,27.09,27.09,0,0,0,20-8q8-8,8-20.36t-8-20.37a27.09,27.09,0,0,0-20-8,26.74,26.74,0,0,0-19.85,8q-7.92,8-7.92,20.37T755.59,112.94Z"/><path class="cls-2" d="M921.34,0h26.54V144H921.34V131.87q-11.73,15-33.33,15-20.78,0-35.48-15.74T837.82,92.58q0-22.85,14.71-38.58T888,38.27q21.6,0,33.33,15ZM872.48,113.46q8.13,8.13,20.47,8.12t20.37-8.12q8-8.13,8-20.88t-8-20.88q-8-8.13-20.37-8.13T872.48,71.7q-8.13,8.13-8.13,20.88T872.48,113.46Z"/><path class="cls-2" d="M989.72,103.48q5.34,19.33,29,19.34,15.22,0,23-10.29l21.39,12.35q-15.23,22-44.85,22-25.5,0-40.93-15.43T962,92.58q0-23.25,15.22-38.78t39.09-15.53q22.62,0,37.33,15.63t14.71,38.68a61.68,61.68,0,0,1-1,10.9Zm-.41-20.57h52.46q-2.26-10.5-9.36-15.64a26.91,26.91,0,0,0-16.15-5.14q-10.71,0-17.7,5.45T989.31,82.91Z"/><polygon class="cls-1" points="1149.15 0 1087.1 179.99 1059.07 179.99 1121.12 0 1149.15 0"/><path class="cls-1" d="M1161.2,138.69,1142.46,120l28.81-28.81-28.81-28.81,18.74-18.74,38.18,38.18a13.24,13.24,0,0,1,0,18.74Z"/></g></g></g></svg>